<svg id="Layer_1" data-name="Layer 1" xmlns="http://www.w3.org/2000/svg" viewBox="0 0 600.61 173.96"><defs><style>.cls-1{fill:#030c12;}.cls-2{fill:#030c11;}.cls-3{fill:#0974ec;}.cls-4{fill:#fff;}</style></defs><path d="M453,471h-1.77a7.6,7.6,0,0,1-2.48-.85c-9.2-4.75-18.33-9.64-27.33-14.77a7.71,7.71,0,0,1-3.85-5.26c-.94-4.28-1.64-8.6-2.38-12.91-.67-3.89-1.35-7.78-2.12-11.65a5.65,5.65,0,0,0-1.24-2.48c-1-1.25-2-2.53-3-3.74A8.19,8.19,0,0,1,407,415.4c-1.19-6.19-2.25-12.39-3.26-18.61a7,7,0,0,1,.41-4c1.09-2.55,2.32-5,3.48-7.56a.48.48,0,0,1,.69-.3,4.79,4.79,0,0,1,2.83,2.33,9.51,9.51,0,0,1,1,3.36c.76,4.93,1.65,9.84,2.51,14.76.83,4.73,1.65,9.46,2.34,14.21a47.29,47.29,0,0,0,.78,4.74A9.76,9.76,0,0,0,423,431a18.46,18.46,0,0,0,4.88,1.74c2.28.43,3.81-.26,4.82-2.33.58-1.2,1.24-2.35,1.79-3.57a16.52,16.52,0,0,1,2.45-4,9,9,0,0,1,8.3-3.19,9.06,9.06,0,0,1,1,.13,2,2,0,0,0,2.6-1.31l-5.82-1a3.82,3.82,0,0,1,.5-1.22,21.82,21.82,0,0,0,1.05-2.25,1.65,1.65,0,0,1,.38-.6l6.62-6.75a2.54,2.54,0,0,1,.28-.21c1.25,1.29,2.5,2.57,3.74,3.86,1.51,1.55,3,3.15,4.53,4.65.67.64.5,1.34.49,2.06,0,.29-.29.26-.49.3l-4,.8a5.94,5.94,0,0,1-.71.14c-.33,0-.45.16-.46.5,0,.84-.06.84.79.85a35.31,35.31,0,0,1,4.24.1c3.47.45,6.31,1.92,8,5.12a18.43,18.43,0,0,0,2.06,3.23,5.43,5.43,0,0,1,.78,1.49c.24.56.48,1.13.76,1.67a2.75,2.75,0,0,0,3,1.61,14.67,14.67,0,0,0,8.57-4,8.53,8.53,0,0,0,2.49-4.9c.94-6,1.93-12,2.86-17.94.84-5.41,1.64-10.82,2.47-16.23a9,9,0,0,1,1.13-3.47,4.33,4.33,0,0,1,2.59-2,.54.54,0,0,1,.75.35c1.14,2.44,2.34,4.86,3.43,7.32a7.24,7.24,0,0,1,.54,4.07q-.78,5.38-1.65,10.76c-.48,3-1,6.05-1.51,9.08a7.91,7.91,0,0,1-.56,1.91,3.39,3.39,0,0,1-1.76,1.87,6.08,6.08,0,0,0-3.45,4.54c-.38,1.69-.56,3.42-.81,5.14-.78,5.25-1.56,10.5-2.5,15.73-.28,1.52-.54,3.05-.87,4.56a7.81,7.81,0,0,1-3.76,5.33c-9,5.32-18.15,10.4-27.39,15.32A7.65,7.65,0,0,1,453,471Zm9-32.58a3.12,3.12,0,0,0,1.29-.36,8.42,8.42,0,0,0,1.44-1c.3-.23.3-.43.16-.75-.85-1.84-1.67-3.69-2.67-5.46a15.14,15.14,0,0,0-1.4-2.14,6,6,0,0,0-4.32-2.31,38.58,38.58,0,0,0-4.16-.1,43,43,0,0,0-5.2.27,6.35,6.35,0,0,0-4.8,3c-.34.54-.67,1.09-1,1.65-.75,1.44-1.4,2.94-2.05,4.43s-.65,1.49.74,2.33a2.71,2.71,0,0,0,4-.63,10.47,10.47,0,0,0,1-1.52,14.71,14.71,0,0,1,1.53-2.15,8.68,8.68,0,0,1,2.18-1.87,5.84,5.84,0,0,1,6.16-.07,8.64,8.64,0,0,1,2.05,1.65,13.73,13.73,0,0,1,1.79,2.45,7.32,7.32,0,0,0,1.48,1.88A2.76,2.76,0,0,0,462,438.4Z" transform="translate(-382.69 -297.02)"/><path class="cls-1" d="M419.7,404.38a20.39,20.39,0,0,1,.7-3.23,5.89,5.89,0,0,1,3.21-3.59,19.25,19.25,0,0,1,2.78-1c-.14-.23-.36-.23-.56-.28l-6.08-1.73c-.2,0-.47,0-.53-.28a1.88,1.88,0,0,1,0-.94c0-.14.21-.15.33-.18a7.47,7.47,0,0,1,3.55-.09c7.28,1.77,14.56,3.53,21.79,5.48a4.07,4.07,0,0,1,2.8,2.92c.14.38,0,.6-.39.78-.76.33-1.59.45-2.32.84a6.61,6.61,0,0,0-1.6,1.05.68.68,0,0,1-.64.21,46.27,46.27,0,0,0-7.35-.21,25.16,25.16,0,0,1-3.36-.11,5.47,5.47,0,0,1-4.23-2.82c-.16-.28-.3-.57-.47-.84a2.09,2.09,0,0,0-3-.77,4.81,4.81,0,0,0-1.54,1.37c-.88,1.14-1.87,2.2-2.81,3.29A.34.34,0,0,1,419.7,404.38Z" transform="translate(-382.69 -297.02)"/><path class="cls-2" d="M484.22,393.8l-6.32,1.94,6.6,6.13-1.33,1.29a27.69,27.69,0,0,1-2.72-2.7,4.33,4.33,0,0,0-2-1.46,1.8,1.8,0,0,0-2.42,1l-.25.5a5.75,5.75,0,0,1-5.08,3.34c-1.39.11-2.78,0-4.17,0l-6.48.06c-.66,0-.67,0-.78-.61-.22-1.24-.46-2.47-.64-3.71-.13-.93-.28-.74.66-1.15a61,61,0,0,1,8.54-2.92,71.23,71.23,0,0,1,10-2.06,18,18,0,0,1,5.43-.07C483.71,393.44,483.71,393.45,484.22,393.8Z" transform="translate(-382.69 -297.02)"/><path class="cls-3" d="M416.29,363l-9.06.05c-2.24,0-4.49,0-6.73,0a5.85,5.85,0,0,1-2.41-.5,4,4,0,0,1-1.8-1.53c-4-6.15-7.75-12.4-11.57-18.64l-2-3.31a1.53,1.53,0,0,1,.68-.48q10.67-5.94,21.34-11.88c2.12-1.18,4.1-2.61,6.12-3.94q19.38-12.75,38.72-25.52a1,1,0,0,1,1.25,0q19.49,12.33,39,24.64c2.33,1.47,4.82,2.64,7.24,3.94q11,5.93,22.1,11.81a2.49,2.49,0,0,0,.28.15c.28.12.35.27.17.55-.3.44-.56.91-.83,1.37-4.11,6.87-8.2,13.76-12.4,20.57a4.12,4.12,0,0,1-3.09,2,13.19,13.19,0,0,1-2.08.11l-12.58.09c0-.11,0-.2-.17-.22-.11-.31-.43-.36-.67-.51l-26.54-16.26c-3.26-2-6.52-4-9.76-6-.5-.31-.89-.37-1.32.06l-.06,0Q434.47,350.3,418.86,361c-.81.56-1.66,1.07-2.41,1.7C416.29,362.75,416.26,362.85,416.29,363Z" transform="translate(-382.69 -297.02)"/><path class="cls-3" d="M450,364.5l25.3-.15,25-.18,2.48,0c.36,0,.52.08.52.49,0,3.66.13,7.31,0,11A3,3,0,0,1,502.2,378a12,12,0,0,1-1.7,1.19c-6.9,4-13.83,7.84-20.85,11.58a11.6,11.6,0,0,1-5.37,1.39c-6.33.07-12.66.11-19,.2-7.93.11-15.86.09-23.79.09a23.16,23.16,0,0,1-4.08-.22,18.6,18.6,0,0,1-5.26-1.84c-3.71-1.9-7.36-3.9-11-5.88-2.56-1.39-5.12-2.77-7.72-4.07a11,11,0,0,1-1.52-.89,5.16,5.16,0,0,1-2.45-4.75c.19-3.08.06-6.14,0-9.21,0-.75,0-.68.71-.68l11.78-.06,22.11-.16Z" transform="translate(-382.69 -297.02)"/><path class="cls-3" d="M482.54,362l-60.67.45a1.36,1.36,0,0,1,.59-.53l27.86-19.14a.81.81,0,0,1,1-.06q15.52,9.54,31.07,19l.13.1Z" transform="translate(-382.69 -297.02)"/><path class="cls-3" d="M554.32,361.79h-9.49v29.8H534.28v-29.8h-9.51V352h29.55Z" transform="translate(-382.69 -297.02)"/><path class="cls-3" d="M580,391.59l-10.59-17.21v17.21H558.84L558.79,352h15.05c8.56,0,14.68,5.77,14.68,12.88a12,12,0,0,1-6.86,10.84l10.62,15.91Zm-10.64-22.23,4.3,0a4,4,0,1,0,0-8h-4.3Z" transform="translate(-382.69 -297.02)"/><path class="cls-3" d="M593.51,377.18V352h10.6v25.2a5.62,5.62,0,0,0,5.82,5.48,5.72,5.72,0,0,0,5.88-5.48V352h10.6v25.22c0,9.1-7.38,15.51-16.45,15.51S593.51,386.28,593.51,377.18Z" transform="translate(-382.69 -297.02)"/><path class="cls-3" d="M630.88,384.88l6.37-6.25a9.65,9.65,0,0,0,8,3.91c2.24,0,4.42-.81,4.42-2.43,0-2-4.05-3.84-7.94-5.56-5-2.16-9.32-5.46-9.32-11.43,0-6.86,6.52-11.75,14-11.75,6,0,10.77,2.85,12.32,6.76L652.74,364c-1.18-2.09-4.23-3-6.12-3-2.17,0-3.72,1.11-3.72,2.46,0,1.82,2.81,2.41,7.08,4.2,6.2,2.61,10.31,6.39,10.31,12.25,0,7.54-7,12.24-15,12.24C638.8,392.13,632.87,389.25,630.88,384.88Z" transform="translate(-382.69 -297.02)"/><path class="cls-3" d="M692.25,361.79h-9.49v29.8H672.21v-29.8h-9.52V352h29.56Z" transform="translate(-382.69 -297.02)"/><path class="cls-3" d="M707.12,361.74v5.53h12.59v8.78H707.12v5.68h15.29v9.86H696.72V352h25.69v9.78Z" transform="translate(-382.69 -297.02)"/><path class="cls-3" d="M762.91,371.82c0,12.29-8.24,19.77-21.71,19.77H728.27V352l12.93,0C754.67,351.91,762.91,359.43,762.91,371.82Zm-10.55,0c0-6.22-4.33-10-11.43-10h-2.41v19.89H741C748.06,381.68,752.36,377.94,752.36,371.8Z" transform="translate(-382.69 -297.02)"/><path d="M780.77,384.88l6.36-6.25a9.65,9.65,0,0,0,8,3.91c2.24,0,4.43-.81,4.43-2.43,0-2-4.06-3.84-7.94-5.56-5-2.16-9.32-5.46-9.32-11.43,0-6.86,6.52-11.75,14-11.75,6,0,10.77,2.85,12.32,6.76L802.62,364c-1.18-2.09-4.23-3-6.12-3-2.16,0-3.71,1.11-3.71,2.46,0,1.82,2.8,2.41,7.08,4.2,6.2,2.61,10.3,6.39,10.3,12.25,0,7.54-7,12.24-15,12.24C788.68,392.13,782.76,389.25,780.77,384.88Z" transform="translate(-382.69 -297.02)"/><path d="M838.42,387h-14.8l-2,4.62H810.1l18.41-40.13h5l18.44,40.13H840.41Zm-3.34-7.7L831,369.88l-4.08,9.39Z" transform="translate(-382.69 -297.02)"/><path d="M855.9,352h10.52v39.63H855.9Z" transform="translate(-382.69 -297.02)"/><path d="M899,381.71v9.88H873.31V352h10.52v29.75Z" transform="translate(-382.69 -297.02)"/><path d="M901.14,371.82c0-11.9,9.44-20.92,21.76-20.92s21.76,9,21.76,20.92-9.44,20.78-21.79,20.78S901.14,383.62,901.14,371.82Zm32.87-.07a11.12,11.12,0,1,0-11.11,10.79A10.8,10.8,0,0,0,934,371.75Z" transform="translate(-382.69 -297.02)"/><path d="M971,391.59l-10.6-17.21v17.21H949.87l0-39.63h15c8.55,0,14.67,5.77,14.67,12.88a11.93,11.93,0,0,1-6.86,10.84l10.63,15.91Zm-10.65-22.23,4.3,0a4,4,0,1,0,0-8h-4.3Z" transform="translate(-382.69 -297.02)"/><rect class="cls-3" x="155.84" y="100.99" width="38.48" height="38.48" rx="6.25"/><polygon class="cls-4" points="175.07 106.73 178.43 117.04 189.27 117.04 180.5 123.42 183.85 133.73 175.07 127.35 166.3 133.73 169.65 123.42 160.88 117.04 171.72 117.04 175.07 106.73"/><rect class="cls-3" x="202.88" y="101.23" width="38.48" height="38.48" rx="6.25"/><polygon class="cls-4" points="222.12 106.97 225.47 117.28 236.31 117.28 227.54 123.66 230.89 133.97 222.12 127.6 213.35 133.97 216.7 123.66 207.93 117.28 218.77 117.28 222.12 106.97"/><rect class="cls-3" x="249.93" y="101.23" width="38.48" height="38.48" rx="6.25"/><polygon class="cls-4" points="269.17 106.97 272.52 117.28 283.36 117.28 274.59 123.66 277.94 133.97 269.17 127.6 260.4 133.97 263.75 123.66 254.98 117.28 265.82 117.28 269.17 106.97"/><rect class="cls-3" x="296.98" y="101.23" width="38.48" height="38.48" rx="6.25"/><polygon class="cls-4" points="316.22 106.97 319.57 117.28 330.41 117.28 321.64 123.66 324.99 133.97 316.22 127.6 307.45 133.97 310.8 123.66 302.03 117.28 312.87 117.28 316.22 106.97"/><rect class="cls-3" x="344.03" y="101.23" width="38.48" height="38.48" rx="6.25"/><polygon class="cls-4" points="363.27 106.97 366.62 117.28 377.46 117.28 368.69 123.66 372.04 133.97 363.27 127.6 354.5 133.97 357.85 123.66 349.07 117.28 359.92 117.28 363.27 106.97"/><path d="M788.64,417v7.76h-2.43V406.84h6.13a6.78,6.78,0,0,1,4.48,1.3,4.65,4.65,0,0,1,1.55,3.79,4.05,4.05,0,0,1-.72,2.4,4.89,4.89,0,0,1-2.09,1.62,3.7,3.7,0,0,1,2.12,1.55,5.13,5.13,0,0,1,.64,2.67v1.68a5.3,5.3,0,0,0,.19,1.5,2.19,2.19,0,0,0,.64,1.08v.3h-2.5a2,2,0,0,1-.61-1.23,10.17,10.17,0,0,1-.14-1.67v-1.64a3.22,3.22,0,0,0-.85-2.34,3,3,0,0,0-2.27-.88Zm0-1.91h3.45a4.52,4.52,0,0,0,3-.78,3,3,0,0,0,.9-2.38,3.07,3.07,0,0,0-.88-2.34,3.88,3.88,0,0,0-2.73-.83h-3.7Z" transform="translate(-382.69 -297.02)"/><path d="M808,425a5.63,5.63,0,0,1-4.47-1.83,7,7,0,0,1-1.61-4.82v-.54a6.87,6.87,0,0,1,1.66-4.74,5.18,5.18,0,0,1,4-1.87,4.83,4.83,0,0,1,4,1.66,6.84,6.84,0,0,1,1.33,4.41v1.28h-8.51l0,.06a5.48,5.48,0,0,0,.88,3.25,3.08,3.08,0,0,0,2.71,1.25,6.09,6.09,0,0,0,2.15-.35,4.84,4.84,0,0,0,1.6-1l.94,1.57a5.63,5.63,0,0,1-1.88,1.16A7.41,7.41,0,0,1,808,425Zm-.38-11.9a2.63,2.63,0,0,0-2.1,1,4.63,4.63,0,0,0-1,2.5l0,.07h6v-.2a3.91,3.91,0,0,0-.71-2.4A2.59,2.59,0,0,0,807.66,413.08Z" transform="translate(-382.69 -297.02)"/><path d="M820.61,420.8l.21.94h.08l.23-.94,3.06-9.37h2.47l-4.89,13.3h-1.83l-5-13.3h2.49Z" transform="translate(-382.69 -297.02)"/><path d="M832.09,408h-2.43v-2.47h2.43Zm0,16.71h-2.43v-13.3h2.43Z" transform="translate(-382.69 -297.02)"/><path d="M842,425a5.63,5.63,0,0,1-4.47-1.83,7,7,0,0,1-1.6-4.82v-.54a6.91,6.91,0,0,1,1.65-4.74,5.18,5.18,0,0,1,4-1.87,4.81,4.81,0,0,1,4,1.66,6.84,6.84,0,0,1,1.33,4.41v1.28h-8.5l0,.06a5.48,5.48,0,0,0,.88,3.25,3.09,3.09,0,0,0,2.71,1.25,6.19,6.19,0,0,0,2.16-.35,4.8,4.8,0,0,0,1.59-1l.94,1.57a5.63,5.63,0,0,1-1.88,1.16A7.34,7.34,0,0,1,842,425Zm-.38-11.9a2.63,2.63,0,0,0-2.1,1,4.63,4.63,0,0,0-1,2.5l0,.07h6v-.2a3.91,3.91,0,0,0-.71-2.4A2.59,2.59,0,0,0,841.57,413.08Z" transform="translate(-382.69 -297.02)"/><path d="M853.65,419.88l.31,1.71H854l.32-1.71,2.66-8.45H859l2.67,8.45.34,1.91H862l.39-1.91,2-8.45h2.53l-3.86,13.3h-2l-2.64-8.1-.5-2.12h-.07l-.47,2.12-2.58,8.1h-2L849,411.43h2.52Z" transform="translate(-382.69 -297.02)"/><path d="M877.66,421.15a1.59,1.59,0,0,0-.61-1.3,5.68,5.68,0,0,0-2.3-.89,9.9,9.9,0,0,1-3.61-1.41,2.87,2.87,0,0,1-1.26-2.44,3.5,3.5,0,0,1,1.38-2.77,6.1,6.1,0,0,1,7.25.07,3.5,3.5,0,0,1,1.34,2.86l0,.08h-2.31a2.09,2.09,0,0,0-.76-1.56,2.7,2.7,0,0,0-1.91-.71,2.78,2.78,0,0,0-1.91.58,1.8,1.8,0,0,0-.64,1.38,1.46,1.46,0,0,0,.55,1.22,6.05,6.05,0,0,0,2.26.78,9.6,9.6,0,0,1,3.71,1.47,3,3,0,0,1,1.27,2.47,3.5,3.5,0,0,1-1.44,2.89,5.92,5.92,0,0,1-3.74,1.11,5.86,5.86,0,0,1-4-1.29,3.69,3.69,0,0,1-1.39-3l0-.07h2.31a2.24,2.24,0,0,0,1,1.89,3.77,3.77,0,0,0,2.1.59,3.28,3.28,0,0,0,2-.55A1.66,1.66,0,0,0,877.66,421.15Z" transform="translate(-382.69 -297.02)"/><path d="M899.82,421.37h.07l5.72-14.54h3v17.9H906.2V411.31h-.07l-5.43,13.43H899l-5.58-13.87h-.07v13.86h-2.43v-17.9h3.19Z" transform="translate(-382.69 -297.02)"/><path d="M921.29,424.73c-.09-.41-.15-.76-.2-1.07a9.19,9.19,0,0,1-.08-.93,5.58,5.58,0,0,1-1.76,1.61,4.5,4.5,0,0,1-2.34.64,4.35,4.35,0,0,1-3.17-1.06,3.93,3.93,0,0,1-1.08-2.93,3.43,3.43,0,0,1,1.54-3,7.17,7.17,0,0,1,4.18-1.08H921v-1.31a2.41,2.41,0,0,0-.71-1.85,2.77,2.77,0,0,0-2-.69,2.94,2.94,0,0,0-1.91.59,1.79,1.79,0,0,0-.72,1.42l-2.3,0,0-.07a3.2,3.2,0,0,1,1.36-2.66,5.64,5.64,0,0,1,3.73-1.2,5.48,5.48,0,0,1,3.64,1.15,4.07,4.07,0,0,1,1.38,3.31v6.41a12.19,12.19,0,0,0,.07,1.37,7.25,7.25,0,0,0,.27,1.31Zm-4-1.77a4.34,4.34,0,0,0,2.37-.68,3.21,3.21,0,0,0,1.37-1.55v-2.16H918.3a3.46,3.46,0,0,0-2.34.74,2.18,2.18,0,0,0-.88,1.73,1.81,1.81,0,0,0,.55,1.4A2.34,2.34,0,0,0,917.27,423Z" transform="translate(-382.69 -297.02)"/><path d="M931,408.22v3.21h2.52v1.79H931v8.08a1.78,1.78,0,0,0,.39,1.31,1.37,1.37,0,0,0,1,.38,2.79,2.79,0,0,0,.47-.05l.43-.12.33,1.66a2,2,0,0,1-.8.36,3.77,3.77,0,0,1-1,.14,3.12,3.12,0,0,1-2.35-.89,3.85,3.85,0,0,1-.87-2.79v-8.08h-2.12v-1.79h2.12v-3.21Z" transform="translate(-382.69 -297.02)"/><path d="M940.06,408.22v3.21h2.52v1.79h-2.52v8.08a1.78,1.78,0,0,0,.39,1.31,1.38,1.38,0,0,0,1,.38,2.68,2.68,0,0,0,.46-.05,3.49,3.49,0,0,0,.43-.12l.34,1.66a2.06,2.06,0,0,1-.8.36,3.84,3.84,0,0,1-1,.14,3.14,3.14,0,0,1-2.35-.89,3.85,3.85,0,0,1-.87-2.79v-8.08h-2.11v-1.79h2.11v-3.21Z" transform="translate(-382.69 -297.02)"/><path d="M951.31,425a5.63,5.63,0,0,1-4.47-1.83,7,7,0,0,1-1.6-4.82v-.54a6.91,6.91,0,0,1,1.65-4.74,5.19,5.19,0,0,1,4-1.87,4.81,4.81,0,0,1,4,1.66,6.84,6.84,0,0,1,1.34,4.41v1.28h-8.51l0,.06a5.48,5.48,0,0,0,.89,3.25,3.07,3.07,0,0,0,2.7,1.25,6.19,6.19,0,0,0,2.16-.35,4.7,4.7,0,0,0,1.59-1l1,1.57a5.74,5.74,0,0,1-1.88,1.16A7.43,7.43,0,0,1,951.31,425Zm-.38-11.9a2.63,2.63,0,0,0-2.09,1,4.56,4.56,0,0,0-1,2.5l0,.07h6v-.2a3.85,3.85,0,0,0-.72-2.4A2.58,2.58,0,0,0,950.93,413.08Z" transform="translate(-382.69 -297.02)"/><path d="M965.91,413.56l-1.24-.07a2.74,2.74,0,0,0-1.62.46,2.89,2.89,0,0,0-1,1.27v9.51h-2.42v-13.3h2.17l.23,1.94a4.53,4.53,0,0,1,1.4-1.61,3.22,3.22,0,0,1,1.91-.58,2.78,2.78,0,0,1,.51,0l.41.09Z" transform="translate(-382.69 -297.02)"/><path d="M976.79,421.15a1.59,1.59,0,0,0-.61-1.3,5.74,5.74,0,0,0-2.31-.89,9.85,9.85,0,0,1-3.6-1.41,2.87,2.87,0,0,1-1.26-2.44,3.5,3.5,0,0,1,1.38-2.77,6.1,6.1,0,0,1,7.25.07,3.53,3.53,0,0,1,1.34,2.86l0,.08h-2.31a2.06,2.06,0,0,0-.76-1.56,2.69,2.69,0,0,0-1.91-.71,2.78,2.78,0,0,0-1.91.58,1.82,1.82,0,0,0-.63,1.38,1.46,1.46,0,0,0,.55,1.22,6,6,0,0,0,2.25.78,9.6,9.6,0,0,1,3.71,1.47,2.93,2.93,0,0,1,1.27,2.47,3.52,3.52,0,0,1-1.43,2.89A6,6,0,0,1,974,425a5.83,5.83,0,0,1-4-1.29,3.66,3.66,0,0,1-1.39-3l0-.07H971a2.24,2.24,0,0,0,1,1.89,3.77,3.77,0,0,0,2.1.59,3.31,3.31,0,0,0,2-.55A1.68,1.68,0,0,0,976.79,421.15Z" transform="translate(-382.69 -297.02)"/></svg>